# xmcd
#
# Track frame offsets:
#	150
#	11689
#	23107
#	35128
#	45598
#	58354
#	70336
#	83427
#	94390
#	105418
#	116636
#	129972
#	142640
#	153401
#	164666
#	176472
#	188105
#	196700
#	205351
#	215889
#	229364
#	242157
#	253837
#	266693
#	277349
#	288114
#	299569
#	312701
#	325053
#	334872
#
# Disc length: 4610
#
# Revision: 1
# Processed by: cddbd v1.5.1PL0 Copyright (c) Steve Scherf et al.
# Submitted via: EasyCDDAExtractor 4.6.0.1
# Normalized: r0:TDELIM( - )
#
DISCID=d112001e
DTITLE=Various Artist - A Million Dollars Worth Of Doo-Wop  Vol 4
DYEAR=1900
DGENRE=Blues
TTITLE0=Charters - I Lost You
TTITLE1=Nobletones - I Love You
TTITLE2=Gaynotes - Pu Pu Pa Doo
TTITLE3=Concepts - Whispers
TTITLE4=Blenders - It Takes Time
TTITLE5=Rannels - Blue Island
TTITLE6=Radiants (Little Jan and the) - If You Love Me
TTITLE7=Twisters - This Is The End
TTITLE8=Coins - Loretta
TTITLE9=Capitols - I Let Her Go
TTITLE10=Teenage Moonlighters - Sorry Sorry
TTITLE11=Pyramids - And I Need You
TTITLE12=Cashmeres - Stairsteps To Heaven
TTITLE13=Blenders - Two Loves
TTITLE14=Candlelighters - Would You Do The Same For Me
TTITLE15=Creators - I'll Stay At Home
TTITLE16=Charades - Let Me Love You
TTITLE17=Januarys (June and the) - Oh What A Feeling
TTITLE18=Mixmasters (Sonny Fulton and the) - Fingerprints
TTITLE19=Laurels - Yours Alone
TTITLE20=Melotones - Prayer Of Love
TTITLE21=Varieteers - I Got A Woman's Love
TTITLE22=Invictas - Lest You Forget
TTITLE23=Arabians - My Heart Beats Over And Over Again
TTITLE24=Daytons - King Of Broken Hearts
TTITLE25=Limelighters - This Lonely Boy
TTITLE26=Jones Boys (Jimmy Jones and the) - Heaven In Your Arms
TTITLE27=Squires - A Dream Come True
TTITLE28=Townsmen - I Can't Go
TTITLE29=Vals - The Song Of A Loner
EXTD=
EXTT0=
EXTT1=
EXTT2=
EXTT3=
EXTT4=
EXTT5=
EXTT6=
EXTT7=
EXTT8=
EXTT9=
EXTT10=
EXTT11=
EXTT12=
EXTT13=
EXTT14=
EXTT15=
EXTT16=
EXTT17=
EXTT18=
EXTT19=
EXTT20=
EXTT21=
EXTT22=
EXTT23=
EXTT24=
EXTT25=
EXTT26=
EXTT27=
EXTT28=
EXTT29=
PLAYORDER=
